<?xml version="1.0" encoding="utf-8"?>
<!-- Generator: Adobe Adobe Illustrator 29.2.0, SVG Export Plug-In . SVG Version: 6.00 Build 0)  -->
<svg version="1.1" id="Layer_1" xmlns="http://www.w3.org/2000/svg" xmlns:xlink="http://www.w3.org/1999/xlink" x="0px"
	y="0px" width="156.97px" height="206.92px" viewBox="0 0 156.97 206.92"
	style="enable-background:new 0 0 156.97 206.92;" xml:space="preserve">
	<style type="text/css">
		.st0 {
			fill-rule: evenodd;
			clip-rule: evenodd;
			fill: #01cbb7;
		}
	</style>
	<path class="st0" d="M77.35,0.75c25,0,50,0,75,0c0,32.33,0,64.67,0,97c0,69.21-4.78,103.65-75,103
	C77.35,134.09,77.35,67.41,77.35,0.75z" />
	<path class="st0" d="M69.35,201.75c-22.66-0.33-45.34-0.67-68-1c0-0.67,0-1.33,0-2c16.67-19.66,33.33-39.34,50-59
	c5.12-6.68,10.1-17.38,18-21C69.35,146.41,69.35,174.09,69.35,201.75z" />
</svg>